<svg xmlns="http://www.w3.org/2000/svg" xmlns:xlink="http://www.w3.org/1999/xlink" width="8" height="12" viewBox="10 10 8 12">
    <defs>
        <path id="a" d="M4.27-3.5v-4.48h-.6v4.48ZM5.75.13l.53-.25a6 6 0 0 0-1.25-1.91c-.42-.35-.83-.38-1.33-.38-.89 0-1.48.57-1.48 1.46 0 .72.53 1.06 1.2 1.06.75 0 1.35-.5 1.66-1.17q.29.45.67 1.19M3.7-1.81h.02c.44 0 .67.03.92.23-.33.97-.95 1.1-1.22 1.1a1 1 0 0 1-.48-.15c-.03-.01-.13-.1-.13-.32 0-.32.13-.52.22-.61q.22-.25.67-.25m0 0"/>
    </defs>
    <use xlink:href="#a" x="10" y="20"/>
</svg>
