<svg xmlns="http://www.w3.org/2000/svg" xmlns:xlink="http://www.w3.org/1999/xlink" width="10" height="12" viewBox="10 10 10 12">
    <defs>
        <path id="a" d="M7.5-.44q.5 0 .95-.31C9.3-1.31 9.8-2.58 9.8-3.91c0-1.32-.66-3.46-2.3-3.46-1.42 0-2.06 1.43-2.5 2.57-.44-1.14-1.08-2.57-2.5-2.57q-.51 0-.95.3C.7-6.5.2-5.26.2-3.92c0 .9.22 1.74.63 2.38.33.55.89 1.1 1.67 1.1 1.4 0 2.08-1.48 2.5-2.6.45 1.14 1.05 2.6 2.5 2.6M5.31-3.9c.27-.73.53-1.48.88-2.01q.55-.87 1.31-.86.67.01 1.16.78c.36.55.53 1.3.53 2.1 0 .77-.17 1.5-.53 2.06q-.49.78-1.16.8-.77 0-1.31-.87c-.35-.54-.61-1.28-.88-2M2.5-6.78q.77 0 1.3.86c.36.53.62 1.28.89 2.01-.27.72-.53 1.46-.9 2q-.52.87-1.29.86-.67-.01-1.17-.8A4 4 0 0 1 .8-3.9 4 4 0 0 1 1.33-6q.5-.76 1.17-.78m0 0"/>
    </defs>
    <use xlink:href="#a" x="10" y="20"/>
</svg>
