<svg xmlns="http://www.w3.org/2000/svg" xmlns:xlink="http://www.w3.org/1999/xlink" width="44" height="24" viewBox="10 10 22 12">
    <defs>
        <path id="a" d="M5.3-7.5V-9h-.6v1.5Zm2.67.95 1.25-1.23-.44-.42-1.25 1.25Zm-5.92 0 .4-.4L1.22-8.2l-.42.42ZM5 .55a3.8 3.8 0 1 0 0-7.6 3.8 3.8 0 0 0 0 7.6m0-6.99a3.2 3.2 0 1 1 0 6.4 3.2 3.2 0 1 1 0-6.4m0 0"/>
        <path id="c" d="M11.78 1.73v-.57H1.18V-8H.6v9.73Zm0 0"/>
        <path id="d" d="m-2.69-3.64-.54-.22c-.38.97-1.05 1.56-1.75 1.56-.74 0-1.41-.6-1.77-1.56l-.56.22c.36.95 1.14 1.94 2.33 1.94 1.17 0 1.92-.99 2.3-1.94m0 0"/>
    </defs>
    <use xlink:href="#a" x="10" y="20"/>
    <use xlink:href="#b" x="20" y="20"/>
    <use xlink:href="#c" x="20" y="20"/>
    <use xlink:href="#a" x="22" y="20"/>
    <use xlink:href="#d" x="32" y="20"/>
</svg>
